<?xml version="1.0" standalone="no"?>
<!DOCTYPE svg PUBLIC "-//W3C//DTD SVG 20010904//EN"
 "http://www.w3.org/TR/2001/REC-SVG-20010904/DTD/svg10.dtd">
<svg version="1.0" xmlns="http://www.w3.org/2000/svg"
 width="2352.000000pt" height="900.000000pt" viewBox="0 0 2352.000000 900.000000"
 preserveAspectRatio="xMidYMid meet">

<g transform="translate(0.000000,900.000000) scale(0.100000,-0.100000)"
fill="#000000" stroke="none">
<path d="M15800 8234 c-192 -41 -335 -179 -376 -361 -25 -113 -16 -263 20
-336 52 -108 130 -156 383 -236 177 -56 216 -79 234 -140 16 -55 -14 -122 -69
-150 -112 -57 -267 -25 -422 87 l-55 40 -86 -162 -86 -161 35 -24 c75 -51 224
-113 320 -133 80 -16 120 -19 227 -15 140 6 205 20 294 63 72 35 179 142 214
214 63 130 75 333 25 441 -58 125 -148 186 -393 264 -172 55 -215 79 -230 126
-18 54 24 124 88 148 75 29 201 4 299 -58 l46 -29 81 158 81 158 -52 22 c-210
90 -413 120 -578 84z"/>
<path d="M22483 8236 c-427 -82 -706 -426 -680 -839 8 -122 27 -192 86 -312
101 -205 285 -351 526 -417 67 -18 106 -21 245 -21 139 0 178 3 245 21 241 66
425 212 526 417 59 120 78 190 86 312 25 387 -224 722 -612 824 -103 27 -318
35 -422 15z m275 -391 c178 -42 303 -168 335 -337 30 -164 -70 -355 -226 -429
-230 -109 -508 -18 -611 200 -27 58 -31 76 -31 156 0 107 19 169 75 247 60 84
158 144 275 168 62 12 114 11 183 -5z"/>
<path d="M7770 7445 l0 -775 200 0 200 0 2 333 3 332 260 -332 260 -332 264
-1 263 0 -38 48 c-21 26 -156 189 -299 362 -143 173 -277 336 -297 361 l-38
46 305 362 c168 199 305 364 305 366 0 3 -111 5 -248 5 l-247 0 -245 -317
-245 -317 -3 317 -2 317 -200 0 -200 0 0 -775z"/>
<path d="M9410 7445 l0 -775 200 0 200 0 0 775 0 775 -200 0 -200 0 0 -775z"/>
<path d="M10130 7445 l0 -775 200 0 200 0 2 297 3 297 193 -297 194 -297 249
0 c235 0 249 1 240 18 -6 9 -113 152 -239 317 l-230 300 47 16 c188 65 281
202 281 411 0 51 -6 116 -14 143 -33 123 -113 229 -216 284 -103 55 -155 61
-552 61 l-358 0 0 -775z m574 450 c32 -9 71 -24 86 -35 35 -25 70 -95 70 -141
-1 -47 -32 -112 -66 -136 -42 -30 -129 -53 -201 -53 l-63 0 0 190 0 190 58 0
c32 0 84 -7 116 -15z"/>
<path d="M11799 8218 c0 -2 -60 -349 -133 -773 l-131 -770 199 -3 c109 -1 200
-1 201 0 2 2 31 194 65 428 35 234 66 428 69 432 4 4 85 -188 181 -427 l175
-435 83 2 83 3 181 433 c100 237 185 429 189 425 3 -5 31 -200 60 -435 l54
-428 204 0 203 0 -6 33 c-9 49 -226 1497 -226 1508 0 5 -86 9 -204 9 l-204 0
-130 -322 c-72 -178 -145 -360 -163 -405 -18 -46 -35 -83 -38 -83 -3 0 -64
154 -135 343 -72 188 -141 370 -154 405 l-24 62 -199 0 c-109 0 -199 -1 -200
-2z"/>
<path d="M13730 7445 l0 -775 440 0 440 0 0 170 0 170 -240 0 -240 0 0 135 0
135 230 0 230 0 0 170 0 170 -230 0 -230 0 0 130 0 130 240 0 240 0 0 170 0
170 -440 0 -440 0 0 -775z"/>
<path d="M16600 8050 l0 -170 165 0 165 0 0 -605 0 -605 200 0 200 0 0 605 0
605 165 0 165 0 0 170 0 170 -530 0 -530 0 0 -170z"/>
<path d="M17843 7678 c4 -596 5 -605 68 -732 79 -162 237 -264 459 -297 100
-14 279 -7 365 16 205 53 375 213 441 415 16 50 19 107 22 598 l3 542 -200 0
-200 0 -4 -502 c-2 -365 -6 -513 -15 -540 -65 -193 -341 -245 -474 -89 -62 73
-62 67 -65 624 l-4 507 -200 0 -200 0 4 -542z"/>
<path d="M19520 7445 l0 -777 363 5 c412 4 436 8 602 91 159 79 259 177 330
321 58 117 70 179 69 360 -1 130 -5 174 -22 236 -70 258 -260 440 -532 510
-78 20 -116 22 -447 26 l-363 5 0 -777z m687 410 c28 -8 73 -30 99 -48 108
-72 158 -186 159 -357 0 -123 -18 -193 -68 -266 -75 -109 -186 -160 -368 -171
l-109 -6 0 438 0 438 118 -6 c64 -3 140 -13 169 -22z"/>
<path d="M21140 7445 l0 -775 200 0 200 0 0 775 0 775 -200 0 -200 0 0 -775z"/>
<path d="M690 4280 l0 -3910 320 0 320 0 0 3585 0 3585 2630 0 2630 0 0 318 0
319 -752 6 c-413 4 -1741 7 -2950 7 l-2198 0 0 -3910z"/>
<path d="M3165 6520 l-760 -760 305 0 305 0 610 610 610 610 962 -962 963
-963 0 -1152 0 -1153 -585 0 -585 0 0 1190 0 1190 -1300 0 -1300 0 0 -2380 0
-2380 215 0 215 0 0 2165 0 2165 870 0 870 0 0 -1190 0 -1190 1015 0 1015 0 0
1458 0 1457 -1023 1023 -1022 1022 -310 0 -310 0 -760 -760z"/>
<path d="M4145 6177 c-73 -41 -108 -123 -86 -198 52 -173 294 -172 341 2 30
109 -56 219 -170 219 -28 0 -60 -9 -85 -23z"/>
<path d="M12820 5288 c-109 -56 -122 -210 -23 -285 50 -38 133 -43 188 -11 80
46 107 159 56 241 -43 70 -144 95 -221 55z"/>
<path d="M13380 4875 l0 -205 -55 0 -55 0 0 -120 0 -120 55 0 55 0 0 -445 0
-445 130 0 130 0 0 445 0 445 100 0 100 0 0 120 0 120 -100 0 -100 0 0 205 0
205 -130 0 -130 0 0 -205z"/>
<path d="M15320 4875 l0 -205 -55 0 -55 0 0 -120 0 -120 55 0 55 0 0 -445 0
-445 130 0 130 0 0 445 0 445 100 0 100 0 0 120 0 120 -100 0 -100 0 0 205 0
205 -130 0 -130 0 0 -205z"/>
<path d="M8180 4685 c-126 -32 -226 -96 -297 -189 -58 -77 -87 -143 -107 -239
-73 -352 120 -684 428 -738 145 -25 287 10 393 97 l43 35 0 -55 0 -56 130 0
130 0 0 565 0 565 -130 0 -130 0 0 -61 0 -62 -46 43 c-25 23 -75 55 -111 72
-55 26 -80 31 -157 34 -57 2 -112 -2 -146 -11z m308 -260 c30 -16 65 -43 79
-60 65 -76 101 -217 84 -326 -28 -174 -131 -277 -287 -287 -136 -9 -234 50
-296 176 -31 63 -33 72 -33 177 0 93 4 118 23 159 64 141 154 199 297 193 66
-3 90 -8 133 -32z"/>
<path d="M9663 4686 c-44 -14 -91 -43 -135 -84 l-28 -26 0 47 0 47 -130 0
-130 0 0 -565 0 -565 129 0 130 0 3 363 3 362 29 58 c59 120 179 155 326 93
11 -4 27 22 67 112 l51 117 -51 24 c-63 30 -198 39 -264 17z"/>
<path d="M10410 4685 c-167 -43 -298 -151 -366 -301 -93 -208 -62 -494 72
-670 174 -230 513 -273 710 -92 l44 41 0 -367 0 -366 130 0 130 0 0 870 0 870
-130 0 -130 0 0 -55 0 -54 -64 48 c-35 27 -85 56 -112 66 -66 23 -214 29 -284
10z m308 -260 c30 -16 65 -43 79 -60 65 -76 101 -217 84 -326 -28 -174 -131
-277 -287 -287 -136 -9 -234 50 -296 176 -31 63 -33 72 -33 177 0 93 4 118 23
159 64 141 154 199 297 193 66 -3 90 -8 133 -32z"/>
<path d="M14395 4688 c-125 -23 -265 -125 -339 -247 -106 -173 -125 -433 -45
-618 92 -214 290 -327 544 -309 164 11 271 54 366 146 49 49 116 138 107 144
-2 1 -49 28 -105 59 -100 56 -123 65 -123 48 0 -21 -95 -112 -142 -135 -105
-52 -266 -28 -340 50 -34 36 -75 125 -84 182 l-7 42 408 0 408 0 -7 93 c-9
125 -29 203 -72 289 -103 204 -322 303 -569 256z m223 -234 c64 -26 123 -95
146 -171 l7 -23 -260 0 c-174 0 -261 3 -261 10 0 18 38 86 67 120 60 72 208
103 301 64z"/>
<path d="M17683 4686 c-44 -14 -91 -43 -135 -84 l-28 -26 0 47 0 47 -130 0
-130 0 0 -565 0 -565 129 0 130 0 3 363 3 362 29 58 c59 120 179 155 326 93
11 -4 27 22 67 112 l51 117 -51 24 c-63 30 -198 39 -264 17z"/>
<path d="M18450 4685 c-126 -32 -226 -96 -297 -189 -58 -77 -87 -143 -107
-239 -73 -352 120 -684 428 -738 145 -25 287 10 393 97 l43 35 0 -55 0 -56
130 0 130 0 0 565 0 565 -130 0 -130 0 0 -61 0 -62 -46 43 c-25 23 -75 55
-111 72 -55 26 -80 31 -157 34 -57 2 -112 -2 -146 -11z m308 -260 c30 -16 65
-43 79 -60 65 -76 101 -217 84 -326 -28 -174 -131 -277 -287 -287 -136 -9
-234 50 -296 176 -31 63 -33 72 -33 177 0 93 4 118 23 159 64 141 154 199 297
193 66 -3 90 -8 133 -32z"/>
<path d="M11470 4285 c0 -417 4 -455 53 -548 158 -300 696 -300 854 0 49 93
53 131 53 548 l0 385 -130 0 -130 0 0 -355 c0 -220 -4 -373 -11 -405 -46 -213
-372 -213 -418 0 -7 32 -11 185 -11 405 l0 355 -130 0 -130 0 0 -385z"/>
<path d="M12770 4105 l0 -565 130 0 130 0 0 565 0 565 -130 0 -130 0 0 -565z"/>
<path d="M15960 4285 c0 -417 4 -455 53 -548 158 -300 696 -300 854 0 49 93
53 131 53 548 l0 385 -130 0 -130 0 0 -355 c0 -220 -4 -373 -11 -405 -46 -213
-372 -213 -418 0 -7 32 -11 185 -11 405 l0 355 -130 0 -130 0 0 -385z"/>
<path d="M3540 4015 l0 -185 185 0 185 0 0 185 0 185 -185 0 -185 0 0 -185z"/>
<path d="M19760 4100 l0 -30 1810 0 1810 0 0 30 0 30 -1810 0 -1810 0 0 -30z"/>
</g>
</svg>
